<svg xmlns="http://www.w3.org/2000/svg" viewBox="0 0 100 100">
  <defs>
    <linearGradient id="bg" x1="0%" y1="0%" x2="100%" y2="100%">
      <stop offset="0%" style="stop-color:#4F46E5"/>
      <stop offset="100%" style="stop-color:#7C3AED"/>
    </linearGradient>
  </defs>
  <rect width="100" height="100" rx="20" fill="url(#bg)"/>
  <circle cx="20" cy="25" r="3" fill="#FDE047"/>
  <circle cx="35" cy="40" r="2.5" fill="#34D399"/>
  <circle cx="50" cy="20" r="2" fill="#F87171"/>
  <circle cx="70" cy="35" r="3.5" fill="#60A5FA"/>
  <circle cx="80" cy="60" r="2" fill="#A78BFA"/>
  <circle cx="30" cy="70" r="2.5" fill="#FBBF24"/>
  <circle cx="65" cy="75" r="3" fill="#FB7185"/>
  <path d="M20 25 Q30 15 35 40 Q45 30 50 20 Q60 25 70 35 Q75 50 80 60 Q70 65 65 75 Q50 80 30 70 Q25 50 20 25" 
        stroke="#FFFFFF" stroke-width="1" fill="none" opacity="0.6"/>
  <text x="50" y="90" text-anchor="middle" fill="white" font-family="Arial, sans-serif" font-size="12" font-weight="bold">🏠</text>
</svg>
